<svg width="186" height="500" viewBox="0 0 186 500" fill="none" xmlns="http://www.w3.org/2000/svg">
<path d="M459.521 254.188L500.741 246.32C504.751 245.554 507.384 241.681 506.62 237.669L506.62 237.669C505.857 233.657 501.987 231.025 497.976 231.79L457.711 239.476L433.258 202.383L446.108 171.961C447.698 168.198 445.938 163.86 442.177 162.271L442.177 162.271C438.416 160.683 434.079 162.445 432.489 166.208L419.639 196.63L371.157 205.885C368.729 206.348 366.692 207.995 365.73 210.273L350.002 247.509L306.361 255.839L281.908 218.745L297.637 181.51C298.599 179.232 298.36 176.624 296.999 174.56L269.833 133.351L285.562 96.1159C286.524 93.8377 286.285 91.2295 284.924 89.1659L257.758 47.9571L259.096 44.7897C260.686 41.0267 258.926 36.6885 255.165 35.1L255.165 35.0999C251.404 33.5114 247.067 35.2741 245.477 39.0371L244.14 42.2045L200.499 50.5344L176.046 13.4413L177.384 10.2738C178.973 6.51088 177.213 2.17265 173.453 0.584146L173.452 0.584005C169.692 -1.0045 165.355 0.75824 163.765 4.5212L162.427 7.68864L121.207 15.557C117.197 16.3226 114.564 20.1957 115.328 24.2078L115.328 24.2079C116.091 28.22 119.961 30.8519 123.972 30.0863L164.237 22.4006L188.69 59.4937L174.502 93.0827L133.282 100.951C129.272 101.717 126.639 105.59 127.403 109.602L127.403 109.602C128.166 113.614 132.036 116.246 136.047 115.48L176.312 107.794L200.765 144.888L186.577 178.477L138.095 187.731C135.667 188.195 133.631 189.842 132.668 192.12L116.94 229.355L68.4579 238.61C66.0298 239.073 63.9932 240.72 63.0309 242.998L47.3024 280.233L6.08256 288.102C2.07184 288.867 -0.560583 292.74 0.202885 296.753L0.202901 296.753C0.966366 300.765 4.83655 303.397 8.84725 302.631L49.1123 294.945L73.5656 332.038L60.7151 362.46C59.1256 366.223 60.8856 370.562 64.6463 372.15L64.6466 372.15C68.4072 373.739 72.7443 371.976 74.3338 368.213L87.1843 337.791L135.666 328.536C138.094 328.073 140.131 326.426 141.093 324.148L156.822 286.913L200.462 278.583L224.915 315.676L209.187 352.911C208.224 355.19 208.464 357.798 209.824 359.861L236.99 401.07L221.262 438.306C220.299 440.584 220.539 443.192 221.899 445.256L249.065 486.464L247.727 489.632C246.138 493.395 247.898 497.733 251.658 499.321L251.659 499.322C255.419 500.91 259.756 499.147 261.346 495.384L262.684 492.217L311.166 482.962C313.594 482.499 315.63 480.852 316.593 478.574L333.861 437.692C334.824 435.414 334.584 432.806 333.224 430.742L306.058 389.534L320.246 355.945L363.887 347.614L386.448 381.839C388.696 385.248 393.281 386.188 396.689 383.938L396.689 383.938C400.098 381.688 401.039 377.1 398.792 373.691L375.695 338.655L389.884 305.066L433.524 296.736L456.086 330.961C458.333 334.37 462.918 335.309 466.327 333.06L466.327 333.059C469.735 330.81 470.677 326.222 468.429 322.813L445.333 287.777L459.521 254.188ZM377.809 219.672L421.449 211.342L445.902 248.435L431.714 282.024L388.074 290.354L363.62 253.261L377.809 219.672ZM362.077 332.903L318.436 341.233L293.983 304.139L308.171 270.55L351.812 262.221L376.265 299.314L362.077 332.903ZM268.289 212.993L224.649 221.323L200.196 184.229L214.384 150.64L258.024 142.311L282.478 179.404L268.289 212.993ZM202.309 65.2464L245.949 56.9165L270.403 94.0096L256.214 127.599L212.574 135.928L188.121 98.8354L202.309 65.2464ZM144.747 201.519L188.387 193.189L212.84 230.282L198.652 263.871L155.012 272.201L130.558 235.108L144.747 201.519ZM129.015 314.749L85.3744 323.079L60.9211 285.986L75.1094 252.397L118.75 244.067L143.203 281.16L129.015 314.749ZM226.459 236.035L270.099 227.705L294.553 264.798L280.364 298.387L236.724 306.717L212.271 269.624L226.459 236.035ZM238.534 321.429L282.174 313.099L306.627 350.192L292.439 383.781L248.799 392.111L224.346 355.018L238.534 321.429ZM304.514 469.175L260.874 477.505L236.421 440.412L250.609 406.823L294.249 398.493L318.702 435.586L304.514 469.175Z" fill="url(#paint0_linear_976_18)" fill-opacity="0.1"/>
<defs>
<linearGradient id="paint0_linear_976_18" x1="146.999" y1="4.91858" x2="337.074" y2="472.588" gradientUnits="userSpaceOnUse">
<stop stop-color="#9979F9" stop-opacity="0.54"/>
<stop offset="1" stop-color="#2B2CFF" stop-opacity="0.46"/>
</linearGradient>
</defs>
</svg>
